PathFileType	4	(X/Y/Z)	S01_0007_Gait_markers.trc
DataRate	CameraRate	NumFrames	NumMarkers	Units	OrigDataRate	OrigDataStartFrame	OrigNumFrames
250.000000	250.000000	4	54	mm	250.000000	0	302
Frame#	Time	HEAD_ANT			R_HEAD			L_HEAD			C7			R_BACK			L_BACK			STERNUM			R_ACROMION			R_HUM_PROX			R_HUM_ANT			R_HUM_POST			R_ELBOW_LAT			R_ELBOW_MED			R_FOREARM			R_WIRST_LAT			R_WRITS_MED			R_HAND			L_ACROMION			L_HUM_PROX			L_HUM_ANT			L_HUM_POST			L_ELBOW_LAT			L_ELBOW_MED			L_FOREARM			L_WRIST_LAT			L_WIRST_MED			L_HAND			R_ILIAC			SACRUM			L_ILIAC			R_GTROCH			R_THIGH__1			R_THIGH_2			R_THIGH_3			R_THIGH_4			R_SHANK_1			R_SHANK_2			R_SHANK_3			R_SHANK_4			R_HEEL			R_FOOT_LAT			R_FOOT_MED			L_GTROCH			L_THIGH_1			L_THIGH_2			L_THIGH_3			L_THIGH_4			L_SHANK_1			L_SHANK_2			L_SHANK_3			L_SHANK_4			L_HEEL			L_FOOT_LAT			L_FOOT_MED			
		X1	Y1	Z1	X2	Y2	Z2	X3	Y3	Z3	X4	Y4	Z4	X5	Y5	Z5	X6	Y6	Z6	X7	Y7	Z7	X8	Y8	Z8	X9	Y9	Z9	X10	Y10	Z10	X11	Y11	Z11	X12	Y12	Z12	X13	Y13	Z13	X14	Y14	Z14	X15	Y15	Z15	X16	Y16	Z16	X17	Y17	Z17	X18	Y18	Z18	X19	Y19	Z19	X20	Y20	Z20	X21	Y21	Z21	X22	Y22	Z22	X23	Y23	Z23	X24	Y24	Z24	X25	Y25	Z25	X26	Y26	Z26	X27	Y27	Z27	X28	Y28	Z28	X29	Y29	Z29	X30	Y30	Z30	X31	Y31	Z31	X32	Y32	Z32	X33	Y33	Z33	X34	Y34	Z34	X35	Y35	Z35	X36	Y36	Z36	X37	Y37	Z37	X38	Y38	Z38	X39	Y39	Z39	X40	Y40	Z40	X41	Y41	Z41	X42	Y42	Z42	X43	Y43	Z43	X44	Y44	Z44	X45	Y45	Z45	X46	Y46	Z46	X47	Y47	Z47	X48	Y48	Z48	X49	Y49	Z49	X50	Y50	Z50	X51	Y51	Z51	X52	Y52	Z52	X53	Y53	Z53	X54	Y54	Z54	

1	0	201.559326171875	1724.800659179688	-376.3923645019527	141.5716400146484	1671.509643554688	-301.9592285156246	148.4591369628906	1674.261352539062	-449.8836669921871	7.444709777832031	1503.993041992188	-380.8412170410153	-71.25703430175781	1310.096435546875	-312.6344299316403	-68.49163055419922	1312.805541992188	-452.2230834960935	178.4250640869141	1334.354614257812	-370.7508850097653	79.28076171875	1456.295166015625	-203.1129608154294	21.06472206115723	1303.53076171875	-109.7757339477536	72.73468017578125	1212.880981445312	-96.59532165527317	-48.68274688720703	1227.597900390625	-99.3311691284177	-12.31117630004883	1117.936157226562	-81.5993499755857	-30.6187801361084	1111.080200195312	-162.4121856689451	85.66033935546875	931.5391845703125	-74.18287658691385	127.0508346557617	865.60302734375	-113.8259429931639	57.15987014770508	841.9698486328125	-80.29361724853497	124.2771301269531	775.4694213867188	-60.4528846740721	91.85779571533203	1454.021240234375	-543.5941772460934	79.9681396484375	1290.943359375	-641.4883422851559	146.3091888427734	1213.467651367188	-637.4539794921873	27.35213279724121	1211.59326171875	-673.307678222656	94.47930908203125	1110.964599609375	-681.2891845703123	38.81647491455078	1096.648559570313	-628.0912475585935	236.5990905761719	968.2525634765626	-634.1821289062498	280.1128234863281	930.4447021484376	-577.2514038085935	246.0346069335938	881.7662353515626	-631.262268066406	338.9884643554688	857.6633911132814	-607.7762451171873	72.67654418945312	1051.658203125	-201.0173339843748	-59.49397659301758	1029.648071289062	-361.2265624999998	53.87228393554688	1047.862670898438	-545.8167724609373	35.01969528198242	899.6575927734375	-183.9923858642576	144.1450347900391	629.8907470703125	-201.3955993652342	193.3712921142578	663.3695068359375	-196.142120361328	228.2061614990234	568.1600341796875	-234.0068206787108	164.6769561767578	552.7776489257812	-225.1871795654296	240.9411773681641	340.3560485839844	-219.8128356933593	300.1194763183594	345.8766479492188	-229.7719573974609	333.3073120117188	267.8547668457032	-248.6992950439453	272.5052795410156	245.0165100097657	-243.4378814697265	334.9707641601562	41.29989624023445	-333.8302612304688	495.4236755371094	74.75824737548834	-247.1318359375	532.0741577148438	120.7555236816407	-333.0242919921875	4.152068138122559	947.0272216796876	-544.515686035156	6.960487365722656	655.2866821289064	-534.5162963867186	-40.08188247680664	690.1151123046876	-545.2521362304686	-79.57479095458984	596.2812500000001	-511.2177429199218	-17.44318199157715	581.5277709960939	-509.786163330078	-147.0976867675781	335.316375732422	-492.7267150878906	-208.3348083496094	334.2394409179689	-491.5176391601562	-238.1429290771484	254.2035980224611	-471.3109741210937	-176.0223388671875	239.2489624023439	-467.9948730468749	-330.2609558105469	85.56018066406259	-393.8560791015625	-169.022705078125	18.82620239257823	-466.6128234863281	-125.5352630615234	30.26836013793953	-363.8631286621094	
2	0.004	206.9721984863281	1723.93505859375	-375.7802429199215	147.0476837158203	1670.425659179688	-301.2637023925777	153.8229522705078	1673.483520507812	-449.2174987792965	13.03811264038086	1503.13037109375	-380.3911437988278	-65.74190521240234	1309.049438476562	-312.5801086425778	-63.05063629150391	1312.014526367188	-451.8189697265622	184.0923919677734	1333.393310546875	-370.3562316894528	84.75314331054688	1455.264892578125	-202.7199401855466	26.15860557556152	1302.369262695312	-110.0493011474607	77.93285369873047	1211.806396484375	-96.31604766845676	-43.47265243530273	1226.390014648438	-99.39611816406223	-7.025001525878906	1116.424072265625	-81.45175170898413	-24.97198295593262	1109.87841796875	-162.3651428222654	90.96614837646484	930.4003295898438	-74.0785675048826	132.2777099609375	864.4105224609375	-113.6202316284178	62.35129928588867	840.7327880859375	-80.38893127441388	129.4297027587891	774.251953125	-60.1525688171385	97.48186492919922	1453.192016601563	-543.2401733398434	85.63702392578125	1290.106567382813	-641.0175781249997	151.8358764648438	1212.7802734375	-637.2783203124998	33.07904434204102	1210.64111328125	-672.7822265624998	100.175163269043	1110.152954101563	-680.9723510742185	44.6602783203125	1095.740112304688	-627.691955566406	242.4215850830078	967.5084838867189	-634.1424560546873	286.0899658203125	929.5968627929689	-577.0612792968748	251.8864440917969	881.1306152343751	-631.3935546874998	344.86865234375	856.9250488281251	-607.7156982421873	78.23960113525391	1050.5458984375	-200.8545684814451	-53.73899841308594	1028.733032226562	-360.9471130371091	59.10144805908203	1047.074340820313	-545.7375488281248	40.62607955932617	898.5322875976562	-183.9138946533201	151.1553192138672	629.5046997070312	-201.2671661376952	200.1927947998047	663.2619018554688	-196.0778808593749	235.4512786865234	567.8713989257812	-234.6229858398436	172.0117492675781	552.4288330078125	-225.5433044433593	248.1705017089844	339.9883728027344	-220.2105712890624	307.3793334960938	345.5310974121094	-230.3355865478515	340.2905578613281	267.4535827636719	-249.0806732177734	279.4446411132812	244.4686737060547	-244.4464416503906	341.3568725585938	40.88175582885749	-334.2753601074219	501.9083557128906	74.2107772827149	-248.0008239746093	538.4822387695312	119.9628295898438	-334.1228637695312	9.645839691162109	946.6389770507814	-544.3107910156248	12.21370887756348	654.6631469726564	-534.4514770507811	-34.65915679931641	689.6107177734376	-545.4598388671874	-74.61574554443359	595.9981079101564	-511.737579345703	-12.70305347442627	580.9666748046876	-510.1151123046874	-143.9587554931641	335.3111572265626	-493.3873596191406	-205.1227722167969	334.533660888672	-491.9513549804687	-235.6651763916016	255.0395355224611	-472.3427429199218	-173.5694274902344	239.6062316894532	-468.4128112792968	-329.7353515625	87.34648132324227	-394.7636413574219	-168.9519805908203	18.81704330444346	-466.6560668945312	-125.6057052612305	30.30038642883309	-363.97705078125	
3	0.008	212.3703765869141	1723.135620117188	-374.9420166015621	152.5618743896484	1669.52099609375	-300.5844726562496	159.3566436767578	1672.675048828125	-448.4353637695309	18.67191123962402	1502.192138671875	-380.0384826660153	-60.09824371337891	1308.171020507812	-312.4616699218747	-57.53833770751953	1311.275512695312	-451.4505920410153	189.7066955566406	1332.519409179688	-369.9293518066403	90.34973907470703	1454.161865234375	-202.2846527099606	31.64816474914551	1301.281127929688	-109.5399017333982	83.20838928222656	1210.71826171875	-95.90068817138645	-38.19200134277344	1225.247924804688	-99.56121063232395	-1.84632420539856	1115.320556640625	-81.51694488525366	-19.3571949005127	1108.633911132812	-162.2440338134763	96.13270568847656	929.2898559570312	-73.72360229492166	137.5516967773438	863.208984375	-113.3772277832029	67.55714416503906	839.4482421875	-80.39298248290997	134.4369964599609	773.1321411132812	-60.0372009277342	102.9892044067383	1452.306640625	-542.7365722656247	91.07380676269531	1289.295532226563	-640.6818847656247	157.4615631103516	1212.05224609375	-636.963684082031	38.53861999511719	1209.869750976563	-672.2782592773435	105.8602905273438	1109.403442382813	-680.5895385742185	50.38440322875977	1094.847900390625	-627.270324707031	248.2367248535156	966.7008056640626	-633.878723144531	291.7961120605469	928.7541503906251	-576.9318237304685	257.6613159179688	880.2909545898439	-631.3041992187498	350.6450500488281	856.2114257812501	-607.699035644531	84.45992279052734	1049.474609375	-200.568420410156	-48.29751205444336	1027.854125976562	-360.7948303222654	64.63835144042969	1046.27734375	-545.3722534179685	46.41340255737305	897.6342163085938	-183.8114624023436	158.3765869140625	629.4576416015625	-201.8059844970702	207.2015686035156	663.1387329101562	-196.5194091796874	242.9239196777344	568.4395141601562	-235.4204711914061	179.4477386474609	552.1970825195312	-226.0408630371093	255.4338989257812	339.7277526855469	-220.741485595703	314.6278991699219	345.2511291503907	-230.9865417480468	347.0379943847656	266.9148864746094	-249.9478759765624	286.1241455078125	244.1356964111329	-245.1046905517578	347.1585083007812	40.32592773437507	-334.6496276855469	507.8397216796875	73.62244415283209	-248.836441040039	544.36083984375	118.7259979248048	-335.3428649902344	15.14352321624756	945.9683837890626	-544.1108398437498	17.19277763366699	654.0614624023439	-534.9223022460936	-29.71788597106934	689.1260375976564	-545.4644165039061	-69.75167846679688	595.4636840820314	-512.1195068359374	-7.668373107910156	580.3293457031251	-510.379180908203	-140.6039428710938	335.2940979003907	-493.7061157226562	-201.8665161132812	335.4229736328126	-492.7911376953124	-233.4070434570312	255.6372833251954	-472.7519836425781	-171.3879089355469	239.5718994140626	-468.5891418457031	-328.9796142578125	89.73339843750009	-395.3266296386719	-168.8429870605469	18.82093048095713	-466.7514038085938	-126.0248107910156	29.83348083496102	-363.6329040527344	
4	0.012	217.9470672607422	1722.415283203125	-374.4447937011715	158.1424865722656	1668.629028320312	-300.0023498535152	164.752685546875	1671.970336914062	-447.862152099609	24.30482292175293	1501.397583007812	-379.6585083007809	-54.49610137939453	1307.225341796875	-312.2089843749997	-51.94623565673828	1310.381103515625	-451.0323181152341	195.4250640869141	1331.731689453125	-369.5341186523435	95.86899566650391	1453.19384765625	-201.8709411621091	37.05366134643555	1300.22119140625	-109.2780303955075	88.55780029296875	1209.6025390625	-95.57685089111301	-32.75739669799805	1224.067749023438	-99.44580841064426	3.767765760421753	1114.145385742188	-81.39897155761695	-13.96072959899902	1107.503540039062	-162.2537994384763	101.4167785644531	927.9422607421875	-73.7835693359373	142.9326477050781	862.1842651367188	-113.1366958618162	72.78504180908203	838.4567260742188	-80.52818298339825	139.6605987548828	771.9481811523438	-59.94930267333967	108.5317153930664	1451.64892578125	-542.4410400390622	96.55707550048828	1288.60498046875	-640.3305664062497	163.2611846923828	1211.38916015625	-636.646545410156	44.06815719604492	1208.976318359375	-671.7288818359373	111.638557434082	1108.636596679688	-680.151672363281	56.10040283203125	1093.904907226563	-626.8847656249998	253.9263305664062	965.8264160156251	-633.7311401367185	297.4644165039062	928.0987548828126	-576.7745971679685	263.4062805175781	879.5803222656251	-631.2194213867185	356.3888854980469	855.4429931640626	-607.7633666992185	89.47547912597656	1048.405151367188	-200.5662536621091	-42.62798309326172	1026.931030273438	-360.4260559082029	69.99642944335938	1045.526000976563	-545.1334228515623	51.95166015625	896.7349243164062	-183.7026977539061	165.5593109130859	629.1719360351562	-201.9932556152342	214.2804412841797	663.1648559570312	-196.6710662841795	250.3985900878906	568.6881103515625	-236.0378875732421	187.0580444335938	552.2423706054688	-226.3275604248046	262.5986938476562	339.6929931640626	-221.3475189208984	321.7617797851562	344.6650695800782	-231.7999267578124	353.6625366210938	266.0761718750001	-251.0104827880859	292.7496948242188	244.0407104492188	-245.6405792236328	352.0821228027344	39.75817489624031	-335.0170288085938	513.1798095703125	72.62896728515631	-249.6938171386718	550.0258178710938	117.2280960083009	-336.2579345703125	20.63613128662109	945.3976440429689	-543.9141845703123	22.56964874267578	653.4749755859376	-534.9582519531249	-24.14386940002441	688.6779174804689	-545.9779663085936	-64.57907867431641	595.0685424804689	-512.5830688476561	-2.654161930084229	579.6444702148439	-510.871856689453	-137.3363342285156	335.2902221679689	-494.1060791015624	-198.6037292480469	335.8302001953126	-493.6378784179687	-230.6923522949219	256.416717529297	-473.6060791015624	-168.9212341308594	239.8491973876954	-469.3447265624999	-328.357177734375	91.37571716308602	-396.546630859375	-168.8017730712891	18.80253791809092	-466.7969055175781	-126.1184387207031	29.8793258666993	-363.7379150390625	
